<svg width="1200" height="140" xmlns="http://www.w3.org/2000/svg">
  <!-- Background -->
  <rect width="1200" height="140" fill="#ffffff"/>
  
  <!-- Icons -->
  <!-- Globe Icon -->
  <circle cx="150" cy="70" r="22" fill="none" stroke="#2196F3" stroke-width="2.5"/>
  <path d="M 150 48 Q 162 70 150 92" fill="none" stroke="#2196F3" stroke-width="2"/>
  <path d="M 150 48 Q 138 70 150 92" fill="none" stroke="#2196F3" stroke-width="2"/>
  <line x1="128" y1="70" x2="172" y2="70" stroke="#2196F3" stroke-width="2"/>
  
  <!-- AI/Chip Icon -->
  <rect x="202" y="50" width="40" height="40" rx="5" fill="none" stroke="#2196F3" stroke-width="2.5"/>
  <circle cx="212" cy="60" r="3" fill="#2196F3"/>
  <circle cx="232" cy="60" r="3" fill="#2196F3"/>
  <circle cx="212" cy="80" r="3" fill="#2196F3"/>
  <circle cx="232" cy="80" r="3" fill="#2196F3"/>
  <line x1="222" y1="55" x2="222" y2="85" stroke="#2196F3" stroke-width="2.5"/>
  
  <!-- Database Icon -->
  <ellipse cx="280" cy="58" rx="20" ry="8" fill="none" stroke="#2196F3" stroke-width="2.5"/>
  <path d="M 260 58 L 260 78 Q 260 86 280 86 Q 300 86 300 78 L 300 58" fill="none" stroke="#2196F3" stroke-width="2.5"/>
  <ellipse cx="280" cy="72" rx="20" ry="8" fill="none" stroke="#2196F3" stroke-width="2.5"/>
  
  <!-- Chat Icon -->
  <rect x="330" y="54" width="35" height="28" rx="5" fill="none" stroke="#2196F3" stroke-width="2.5"/>
  <path d="M 347.5 82 L 347.5 90 L 355 82 Z" fill="#2196F3"/>
  <circle cx="340" cy="68" r="3" fill="#2196F3"/>
  <circle cx="347.5" cy="68" r="3" fill="#2196F3"/>
  <circle cx="355" cy="68" r="3" fill="#2196F3"/>
  
  <!-- Title Text -->
  <text x="400" y="75" font-family="Arial, sans-serif" font-size="36" font-weight="bold" fill="#1a1a1a">
    Travel RAG Assistant
  </text>
  
  <!-- Subtitle Text -->
  <text x="400" y="105" font-family="Arial, sans-serif" font-size="16" fill="#666666">
    AI-Powered Tourism Information System
  </text>
</svg>
